<svg xmlns="http://www.w3.org/2000/svg" height="512" viewBox="0 0 128 128" width="512"><g><path d="m116.989 30.765-10.448 51.214h-62.047l-10.448-51.214z" fill="#f9cc4e"></path><rect fill="#f95050" height="7.454" rx="3.727" width="92.352" x="29.342" y="23.312"></rect><path d="m44.5 81.979 2.684 13.157h56.544a2.818 2.818 0 0 0 2.818-2.818 2.818 2.818 0 0 0 -2.818-2.818h-51.828l-1.54-7.521z" fill="#4ec4b5"></path><rect fill="#4ec4b5" height="5.636" rx="2.818" width="34.025" x="6.306" y="6.306"></rect><circle cx="54.013" cy="112.175" fill="#f95050" r="9.518"></circle><circle cx="97.022" cy="112.175" fill="#f95050" r="9.518"></circle><circle cx="97.022" cy="112.175" fill="#e2e8ed" r="3.676"></circle><circle cx="54.013" cy="112.175" fill="#e2e8ed" r="3.676"></circle><path d="m38.4 23.31h-5.33a4.529 4.529 0 0 0 -.5.034l-.043.006-2.317-11.41h5.87z" fill="#4ec4b5"></path><g fill="#e2e8ed"><path d="m101.294 46.39h-51.553a1.75 1.75 0 0 1 0-3.5h51.553a1.75 1.75 0 0 1 0 3.5z"></path><path d="m99.452 58.122h-47.869a1.75 1.75 0 0 1 0-3.5h47.869a1.75 1.75 0 0 1 0 3.5z"></path><path d="m97.464 69.854h-43.893a1.75 1.75 0 0 1 0-3.5h43.893a1.75 1.75 0 0 1 0 3.5z"></path></g></g></svg>